<?xml version="1.0" standalone="no"?>
<!DOCTYPE svg PUBLIC "-//W3C//DTD SVG 20010904//EN"
 "http://www.w3.org/TR/2001/REC-SVG-20010904/DTD/svg10.dtd">
<svg version="1.0" xmlns="http://www.w3.org/2000/svg"
 width="1500.000000pt" height="1687.000000pt" viewBox="0 0 1500.000000 1687.000000"
 preserveAspectRatio="xMidYMid meet">

<g transform="translate(0.000000,1687.000000) scale(0.100000,-0.100000)"
fill="#000000" stroke="none">
<path d="M7098 15995 c-605 -223 -864 -345 -1113 -521 -49 -35 -91 -62 -92
-60 -2 2 1 41 7 87 16 132 13 213 -8 232 -44 40 -100 5 -292 -178 -182 -173
-269 -241 -342 -266 -43 -14 -56 -15 -135 -1 -216 37 -450 -44 -640 -222 -120
-113 -188 -215 -261 -397 -8 -21 -19 -27 -58 -33 -76 -10 -175 -7 -327 10
-253 28 -337 10 -477 -107 -225 -187 -443 -391 -867 -812 -366 -364 -467 -470
-491 -515 -17 -32 -53 -124 -81 -206 -28 -82 -66 -176 -83 -208 -63 -118 -220
-286 -578 -617 -468 -434 -615 -612 -770 -933 -165 -344 -248 -675 -365 -1458
-30 -206 -70 -456 -87 -554 l-32 -179 23 -41 c59 -105 245 -485 299 -611 150
-347 251 -676 311 -1014 30 -165 28 -205 -10 -243 -29 -30 -33 -30 -100 -26
l-69 5 0 -161 c0 -175 12 -307 36 -401 21 -83 121 -318 409 -965 356 -800 472
-1082 615 -1500 l78 -225 34 -6 c48 -7 118 -51 158 -96 49 -56 79 -130 106
-266 127 -641 415 -1018 870 -1143 46 -12 119 -17 319 -19 224 -3 271 -6 338
-24 104 -27 194 -76 294 -159 196 -163 484 -262 762 -262 l114 0 111 -59 c61
-32 242 -126 401 -209 318 -164 508 -270 658 -368 120 -79 159 -84 213 -30 23
23 36 30 44 22 6 -6 10 -56 10 -119 l0 -109 28 6 c45 9 444 54 642 73 233 21
865 25 1040 5 171 -19 337 -49 489 -88 l136 -35 80 22 c223 60 462 3 782 -187
43 -25 87 -47 98 -49 118 -14 142 -15 165 -2 21 11 25 19 24 57 -1 25 -5 57
-9 71 -6 24 -2 27 62 56 37 18 96 41 131 52 84 27 393 91 440 91 51 0 93 -29
149 -102 78 -101 104 -128 147 -152 88 -51 84 -55 88 101 4 170 17 205 92 242
46 23 58 24 206 23 l156 -2 0 132 c-1 127 0 135 26 179 15 26 34 49 41 52 8 3
96 95 196 204 101 109 210 224 244 256 71 68 187 157 234 181 l31 16 113 -125
c63 -69 117 -125 121 -125 13 0 9 61 -7 123 -23 90 -67 165 -149 255 -76 83
-91 117 -63 140 7 6 76 32 153 57 196 64 276 62 370 -10 18 -14 35 -25 38 -25
3 0 -6 19 -19 43 -50 86 -23 147 84 187 40 16 76 20 164 20 141 0 199 16 249
67 51 52 77 118 91 224 l11 90 185 222 c266 320 420 531 603 827 216 350 448
823 634 1292 41 103 74 190 74 193 0 14 -172 -128 -261 -215 -107 -106 -169
-182 -279 -344 -41 -61 -90 -121 -109 -133 -42 -29 -93 -29 -137 -3 -18 12
-34 17 -37 13 -2 -4 -26 -78 -52 -163 -26 -85 -50 -157 -52 -160 -6 -6 5 175
14 234 l5 40 -68 -54 c-627 -494 -1427 -1090 -1979 -1472 -339 -235 -770 -517
-843 -551 -129 -60 -222 -37 -287 73 -17 27 -33 50 -37 50 -3 0 -48 -36 -98
-80 -105 -90 -148 -110 -185 -86 -24 16 -49 81 -41 107 2 8 7 26 10 41 6 26 5
27 -23 17 -20 -7 -53 -7 -106 0 -112 16 -136 4 -181 -94 -20 -46 -39 -75 -47
-73 -6 3 -22 20 -34 39 -34 54 -61 85 -67 78 -3 -3 -15 -68 -28 -145 l-21
-139 -12 58 c-11 54 -25 76 -49 77 -18 0 -94 -89 -106 -125 l-12 -36 -73 108
c-41 59 -94 128 -119 153 l-46 44 21 -59 c12 -33 24 -86 26 -117 5 -49 3 -59
-12 -64 -13 -5 -26 2 -46 24 -33 37 -34 35 -44 -86 l-7 -83 -42 -26 c-22 -14
-77 -60 -121 -103 -58 -56 -91 -81 -120 -88 -22 -6 -121 -18 -220 -27 -215
-19 -425 -54 -613 -100 l-139 -34 -74 19 c-502 131 -1166 238 -1729 280 -413
31 -723 119 -1075 304 -122 65 -275 154 -275 162 0 2 15 10 34 18 46 19 110
79 130 120 16 33 22 117 10 129 -4 3 -16 -8 -28 -26 -12 -18 -41 -42 -64 -55
-38 -21 -245 -72 -293 -72 -15 0 -85 62 -213 187 -105 104 -387 370 -626 592
-834 775 -1188 1124 -1524 1501 -253 283 -299 365 -535 953 -62 152 -130 316
-151 363 l-40 86 -25 -30 c-37 -45 -76 -57 -114 -38 -65 34 -128 174 -112 247
20 89 94 123 168 77 l35 -21 -6 29 c-3 16 -40 270 -81 564 l-76 534 15 75 c11
52 41 128 95 241 50 104 84 187 91 225 5 33 53 452 105 930 115 1055 121 1098
220 1440 82 281 223 609 371 862 136 232 353 528 556 758 151 170 493 507 862
849 384 355 455 413 646 526 63 37 286 169 495 293 483 286 645 377 858 486
414 210 824 352 1217 420 267 47 379 55 780 56 277 1 398 5 430 14 122 35 182
98 204 216 7 35 10 335 3 341 -1 1 -24 -3 -52 -8 -88 -18 -157 14 -328 156
-52 42 -104 74 -152 94 l-74 29 -303 -112z m-5859 -9645 c31 -16 79 -102 152
-272 69 -162 130 -282 149 -293 6 -3 10 -10 10 -16 0 -19 -137 61 -177 103
-45 50 -59 85 -67 174 -6 73 -32 141 -86 235 -22 37 -40 70 -40 73 0 9 40 7
59 -4z m-182 -22 c11 -17 103 -312 98 -316 -1 -2 -43 46 -91 107 -48 61 -91
111 -96 111 -17 0 -7 64 14 87 23 25 62 30 75 11z"/>
<path d="M9790 15610 c-230 -5 -270 -8 -303 -24 -46 -23 -112 -96 -127 -142
-6 -19 -13 -34 -14 -34 -1 0 -22 10 -47 22 -85 42 -433 34 -531 -12 -58 -27
-113 -81 -146 -145 -34 -66 -37 -185 -5 -256 50 -110 205 -249 383 -343 180
-95 439 -161 685 -173 l120 -6 115 -65 c517 -293 924 -563 1865 -1237 270
-193 557 -398 640 -455 149 -104 149 -105 216 -108 82 -5 133 11 281 84 59 30
113 54 120 54 10 0 13 -35 13 -147 0 -162 14 -248 67 -412 39 -122 131 -357
169 -432 39 -79 150 -194 254 -263 151 -102 242 -222 280 -371 37 -142 27
-328 -25 -494 l-22 -70 74 -143 c88 -168 139 -254 228 -380 80 -113 247 -289
317 -335 68 -43 83 -73 83 -165 0 -177 103 -233 196 -107 16 21 32 39 35 39 6
0 -7 -121 -37 -370 -23 -185 -26 -571 -5 -675 17 -85 25 -69 35 70 34 504 146
1070 281 1418 6 14 3 16 -11 10 -44 -15 -80 -51 -130 -130 -53 -81 -99 -123
-136 -123 -17 0 -18 16 -18 193 0 353 -25 640 -119 1382 l-58 460 -753 1205
c-414 663 -766 1223 -781 1245 -58 79 -252 284 -363 384 -166 149 -280 238
-456 356 -350 233 -695 400 -1117 539 -447 147 -637 170 -1253 156z"/>
<path d="M4360 12502 c0 -82 -3 -170 -6 -196 l-7 -46 156 0 155 0 121 -372
c67 -205 152 -465 188 -578 118 -370 366 -1115 379 -1135 6 -11 130 -361 275
-777 l264 -758 95 0 95 0 530 -171 c291 -94 533 -174 537 -178 12 -10 -768
-248 -853 -260 -152 -21 -278 -83 -389 -191 -361 -354 -221 -970 257 -1135
104 -36 274 -45 378 -21 189 45 370 186 453 356 55 113 75 193 75 310 -1 150
-37 272 -117 389 -20 30 -34 56 -32 59 3 3 205 67 448 143 l443 139 435 -141
c239 -77 436 -142 438 -144 2 -2 -15 -27 -39 -57 -58 -73 -114 -197 -135 -298
-59 -294 92 -604 359 -735 132 -65 196 -78 342 -73 144 6 239 36 352 111 142
94 251 255 288 423 65 289 -83 611 -344 748 -38 20 -71 40 -73 45 -3 8 -54 26
-628 212 l-345 111 620 194 c341 107 629 194 640 194 26 1 59 26 51 39 -4 5
192 545 434 1200 242 655 440 1193 440 1196 0 3 -1167 5 -2594 5 -1770 0
-2597 3 -2601 10 -4 6 -118 351 -254 768 l-247 757 -292 3 -292 2 0 -148z
m5735 -1779 c-8 -21 -161 -411 -338 -868 l-323 -830 -1622 -3 c-892 -1 -1622
0 -1622 3 0 3 -110 388 -245 857 -135 468 -243 854 -240 856 4 4 1071 10 3917
20 l488 2 -15 -37z m-1766 -2067 c-2 -2 -120 -41 -262 -85 l-258 -80 -240 77
-239 77 208 5 c277 7 796 11 791 6z m-1832 -1036 c136 -60 205 -215 162 -360
-18 -59 -78 -130 -139 -164 -50 -28 -63 -31 -140 -31 -76 0 -91 3 -139 30
-102 57 -151 142 -151 264 1 208 215 346 407 261z m2792 -36 c55 -23 114 -78
145 -134 81 -149 16 -335 -142 -408 -47 -21 -64 -24 -131 -20 -117 7 -197 61
-252 168 -33 64 -33 176 0 244 70 142 237 208 380 150z"/>
<path d="M7054 10353 l-831 -3 132 -463 132 -462 1339 0 1339 0 167 430 c92
237 175 447 183 468 l15 37 -823 -2 c-452 -2 -1196 -4 -1653 -5z"/>
<path d="M7485 11758 l-488 -403 492 -3 c270 -1 711 -1 981 0 l490 3 -485 400
c-267 220 -489 401 -494 403 -4 1 -228 -179 -496 -400z"/>
<path d="M7723 6375 c-245 -66 -353 -256 -379 -665 -8 -133 10 -318 42 -429
108 -372 407 -513 806 -381 l97 32 -20 52 c-12 28 -22 53 -25 55 -2 2 -29 -6
-61 -18 -287 -106 -506 -44 -617 177 -49 96 -67 191 -73 372 -14 419 67 629
266 686 67 20 206 22 281 4 93 -22 90 -17 90 -130 l0 -100 65 0 65 0 0 139 0
139 -51 21 c-136 59 -359 80 -486 46z"/>
<path d="M3960 6320 l0 -60 315 0 c173 0 315 -3 315 -7 0 -5 -149 -291 -331
-638 -327 -624 -330 -630 -324 -678 3 -26 8 -54 11 -62 5 -13 63 -15 425 -15
l419 0 0 55 0 55 -345 0 c-231 0 -345 3 -345 10 0 6 149 292 330 635 182 344
330 635 330 648 0 14 -3 45 -6 71 l-7 46 -393 0 -394 0 0 -60z"/>
<path d="M10580 6343 c0 -18 -21 -242 -26 -280 l-5 -43 -90 0 -89 0 0 -50 0
-50 89 0 90 0 3 -407 c4 -393 5 -410 27 -476 50 -153 157 -201 402 -183 l94 7
-3 58 -4 57 -99 -4 c-125 -5 -161 2 -204 39 -64 56 -68 85 -73 522 l-4 387
186 0 186 0 0 50 0 50 -185 0 -185 0 0 165 0 165 -55 0 c-30 0 -55 -3 -55 -7z"/>
<path d="M5391 6029 c-126 -25 -237 -112 -296 -234 -52 -107 -68 -208 -63
-394 4 -135 9 -167 32 -235 63 -185 175 -277 373 -308 124 -20 340 20 430 79
l22 15 -20 51 c-12 29 -22 53 -24 55 -2 2 -22 -6 -46 -19 -80 -40 -154 -60
-244 -66 -234 -15 -355 103 -380 370 l-7 77 365 0 365 0 6 23 c11 42 6 212 -9
275 -30 125 -96 219 -192 269 -93 49 -201 64 -312 42z m202 -125 c55 -19 117
-77 146 -138 21 -46 41 -145 41 -208 l0 -38 -305 0 c-177 0 -305 4 -305 9 0 5
7 45 15 88 29 151 104 257 205 288 61 19 147 18 203 -1z"/>
<path d="M6571 6029 c-30 -5 -93 -25 -141 -44 -48 -19 -90 -35 -94 -35 -3 0
-6 9 -6 19 0 44 -10 51 -71 51 l-59 0 0 -580 0 -580 75 0 75 0 0 489 0 489 48
20 c100 43 165 56 272 57 129 0 162 -15 200 -90 l25 -50 3 -457 3 -458 74 0
75 0 0 388 c0 213 -5 428 -10 477 -18 155 -81 253 -189 290 -56 20 -207 27
-280 14z"/>
<path d="M8811 6025 c-90 -16 -200 -46 -206 -55 -9 -14 22 -105 36 -104 8 1
66 13 130 28 180 40 271 33 344 -26 62 -52 95 -146 95 -272 l0 -63 -133 -6
c-248 -12 -368 -48 -458 -136 -72 -70 -95 -137 -85 -240 20 -188 160 -301 373
-301 68 0 192 28 259 59 l61 29 12 -39 c12 -39 12 -39 61 -39 l50 0 0 421 c0
445 -4 488 -50 578 -75 147 -255 208 -489 166z m399 -796 l0 -190 -43 -19
c-106 -47 -278 -66 -358 -39 -94 32 -144 109 -137 213 5 90 32 127 121 171 82
40 152 52 310 54 l107 1 0 -191z"/>
<path d="M10115 6025 c-71 -16 -186 -58 -232 -85 -31 -18 -31 -18 -37 3 -3 12
-6 34 -6 50 0 27 0 27 -70 27 l-70 0 0 -580 0 -580 75 0 75 0 0 478 0 478 30
17 c51 30 168 66 256 78 l84 12 0 59 c0 67 1 66 -105 43z"/>
</g>
</svg>
